 http://imageshack.us/m/30/5929/33356245.jpg

Country.......: USA
Genre.........: Thriller, Horror
Date release..: 16.09.2010 [World]
Director......: John Erick Dowdle
Writers.......: Brian Nelson, M. Night Shyamalan
Duration......: 80 min.
More..........: http://www.imdb.com/title/tt1314655
Trailer.......: http://www.imdb.com/video/imdb/vi1736574489
Trailer.......:

Pilot :
A group of people are trapped in an elevator and the Devil is mysteriously amongst them. 

Cats :
Chris Messina   	 ...  	Detective Bowden
Logan Marshall Green 	... 	Mechanic
Jenny O Hara 	... 	Old Woman
Bojana Novakovic 	... 	Young Woman
Bokeem Woodbine 	... 	Guard
Geoffrey Arend 	... 	Salesman
Jacob Vargas 	... 	Ramirez
Matt Craven 	... 	Lustig
Joshua Peace 	... 	Detective Markowitz
Caroline Dhavernas 	... 	Elsa Nahai
Joe Cobden 	... 	Dwight
Zoie Palmer 	... 	Cheryl
Vincent Laresca 	... 	Henry
Rudy Webb 	... 	Old Janitor
Craig Eldridge 	... 	Donnelly 

Data Technical :
!!! SAMPLE !!!
Audio.....: English
Subtitles.: English .srt, Spanish .srt, French .srt, Polish .txt
Format                           : AVI
Format/Info                      : Audio Video Interleave
File size                        : 701 MiB
Duration                         : 1h 20mn
Overall bit rate                 : 1 217 Kbps
Writing application              : VirtualDubMod 1.5.4.1 (build 2178/release)
Writing library                  : VirtualDubMod build 2178/release
Video
ID                               : 0
Format                           : MPEG-4 Visual
Format profile                   : Advanced Simple@L5
Format settings, BVOP            : Yes
Format settings, QPel            : No
Format settings, GMC             : No warppoints
Format settings, Matrix          : Default (H.263)
Muxing mode                      : Packed bitstream
Codec ID                         : DX50
Codec ID/Hint                    : DivX 5
Duration                         : 1h 20mn
Bit rate                         : 1 016 Kbps
Width                            : 640 pixels
Height                           : 272 pixels
Display aspect ratio             : 2.35:1
Frame rate                       : 23.976 fps
Color space                      : YUV
Chroma subsampling               : 4:2:0
Bit depth                        : 8 bits
Scan type                        : Progressive
Bits/(Pixel*Frame)               : 0.243
Stream size                      : 585 MiB (83%)
Writing library                  : XviD 1.2.1 (UTC 2008-12-04)
Audio
ID                               : 1
Format                           : AC-3
Format/Info                      : Audio Coding 3
Mode extension                   : CM (complete main)
Codec ID                         : 2000
Duration                         : 1h 20mn
Bit rate mode                    : Constant
Bit rate                         : 192 Kbps
Channel(s)                       : 2 channels
Channel positions                : Front: L R
Sampling rate                    : 48.0 KHz
Bit depth                        : 16 bits
Stream size                      : 110 MiB (16%)
Alignment                        : Split accross interleaves
Interleave, duration             : 42 ms (1.00 video frame)
Interleave, preload duration     : 500 ms

Screen : 
http://imageshack.us/m/220/1166/devil2010s1m.jpg 
http://imageshack.us/m/840/6356/devil2010s2.jpg 
http://imageshack.us/m/806/7017/devil2010s3.jpg 
http://imageshack.us/m/34/8550/devil2010s4.jpg 
http://imageshack.us/m/31/3281/devil2010s5.jpg